M48
; DRILL file {KiCad 9.0.7-9.0.7~ubuntu24.04.1} date 2026-03-06T12:59:41-0500
; FORMAT={-:-/ absolute / metric / decimal}
; #@! TF.CreationDate,2026-03-06T12:59:41-05:00
; #@! TF.GenerationSoftware,Kicad,Pcbnew,9.0.7-9.0.7~ubuntu24.04.1
; #@! TF.FileFunction,Plated,1,4,PTH
FMAT,2
METRIC
; #@! TA.AperFunction,Plated,PTH,ViaDrill
T1C0.381
; #@! TA.AperFunction,Plated,PTH,ComponentDrill
T2C0.500
; #@! TA.AperFunction,Plated,PTH,ComponentDrill
T3C0.600
; #@! TA.AperFunction,Plated,PTH,ComponentDrill
T4C0.950
; #@! TA.AperFunction,Plated,PTH,ComponentDrill
T5C1.000
; #@! TA.AperFunction,Plated,PTH,ComponentDrill
T6C1.016
%
G90
G05
T1
X21.7Y-71.5
X21.7Y-75.0
X22.75Y-30.5
X24.0Y-33.75
X26.0Y-30.5
X28.394Y-65.0
X28.581Y-57.614
X28.65Y-52.4
X29.0Y-60.4
X29.04Y-63.053
X29.25Y-71.15
X29.472Y-57.42
X30.0Y-72.8
X30.0Y-75.6
X31.435Y-61.396
X31.85Y-46.4
X33.674Y-66.921
X34.0Y-65.65
X34.25Y-63.8
X34.362Y-67.438
X35.75Y-39.0
X35.75Y-39.75
X37.625Y-62.748
X37.8Y-36.4
X38.25Y-68.8
X38.297Y-67.903
X40.0Y-66.6
X40.245Y-36.305
X40.4Y-49.1
X41.0Y-42.7
X41.0Y-46.3
X41.25Y-67.903
X41.8Y-49.1
X42.2Y-42.7
X42.4Y-57.2
X42.5Y-46.3
X43.2Y-54.6
X43.65Y-71.2
X43.65Y-72.2
X43.65Y-73.2
X44.0Y-46.15
X44.219Y-73.845
X44.4Y-59.7
X44.637Y-36.252
X45.25Y-65.0
X45.45Y-66.4
X46.4Y-45.457
X46.4Y-46.6
X46.65Y-51.6
X46.65Y-66.4
X47.688Y-58.1
X47.7Y-62.4
X47.875Y-66.575
X48.45Y-69.8
X48.683Y-57.05
X48.712Y-36.257
X48.757Y-63.981
X48.8Y-58.2
X48.8Y-59.1
X49.313Y-43.1
X49.527Y-51.2
X49.582Y-53.355
X49.65Y-68.8
X50.0Y-50.0
X50.247Y-54.2
X50.413Y-45.7
X51.25Y-68.8
X51.45Y-71.4
X53.25Y-62.15
X53.282Y-59.2
X54.0Y-75.65
X54.15Y-59.509
X54.65Y-76.4
X54.85Y-74.595
X54.86Y-69.59
X54.871Y-58.671
X54.926Y-46.926
X55.025Y-48.025
X55.05Y-65.4
X55.75Y-38.75
X55.775Y-59.0
X55.8Y-34.75
X56.1Y-65.1
X56.213Y-68.9
X56.405Y-58.005
X56.6Y-61.1
X57.066Y-68.793
X57.334Y-67.116
X57.75Y-56.8
X58.0Y-52.5
X58.3Y-64.0
X58.75Y-59.0
X58.75Y-65.3
X59.0Y-40.75
X59.0Y-71.9
X59.05Y-58.0
X59.5Y-49.15
X59.556Y-53.784
X59.75Y-76.65
X59.999Y-62.797
X60.226Y-63.626
X60.8Y-59.5
X62.001Y-60.479
X62.478Y-68.203
X62.562Y-61.362
X63.718Y-65.014
X64.4Y-61.0
X64.75Y-75.9
X64.782Y-57.881
X65.0Y-70.15
X65.2Y-46.4
X65.25Y-74.65
X66.0Y-59.0
X66.195Y-51.4
X66.195Y-57.455
X68.2Y-55.2
X68.6Y-57.6
X68.6Y-63.8
X69.0Y-59.883
X69.75Y-46.9
X70.0Y-68.4
X71.0Y-66.6
X71.32Y-51.4
X71.6Y-70.2
X71.6Y-74.4
X74.0Y-66.8
X74.2Y-58.8
X74.2Y-60.4
X74.75Y-46.9
X74.8Y-56.4
X76.445Y-51.4
X76.8Y-59.6
X76.8Y-70.2
X78.4Y-56.2
X78.6Y-51.0
X79.0Y-57.0
X80.2Y-59.6
T2
X33.8Y-74.8
X34.8Y-72.6
X41.3Y-53.7
X41.3Y-55.8
X43.3Y-58.5
X44.9Y-53.7
X44.9Y-55.8
X55.25Y-42.0
T4
X32.1Y-81.5
X33.7Y-22.8
X34.6Y-81.5
X36.2Y-22.8
X37.1Y-81.5
X38.7Y-22.8
X39.6Y-81.5
X41.2Y-22.8
X42.1Y-81.5
X48.4Y-22.8
X50.9Y-22.8
X53.4Y-22.8
X55.9Y-22.8
X83.4Y-48.7
X83.4Y-51.2
X83.4Y-53.7
X83.4Y-56.2
X83.4Y-65.6
X83.4Y-68.1
X83.4Y-70.6
X83.4Y-73.1
X83.4Y-46.2
X83.4Y-63.1
T5
X24.8Y-35.64
X24.8Y-38.18
X24.8Y-40.72
X24.8Y-43.26
X24.8Y-45.8
X27.34Y-35.64
X27.34Y-38.18
X27.34Y-40.72
X27.34Y-43.26
X27.34Y-45.8
X48.8Y-79.86
X48.8Y-82.4
X53.9Y-82.4
X56.44Y-82.4
X58.98Y-82.4
X61.52Y-82.4
X63.7Y-22.8
X64.06Y-82.4
X66.2Y-22.8
X66.6Y-82.4
X69.14Y-82.4
X71.68Y-82.4
X73.4Y-22.8
X75.9Y-22.8
T6
X62.44Y-35.6
X62.44Y-38.14
X64.98Y-35.6
X64.98Y-38.14
X67.52Y-38.14
X67.52Y-35.6
X70.06Y-38.14
X70.06Y-35.6
X72.6Y-38.14
X72.6Y-35.6
X75.14Y-35.6
X75.14Y-38.14
X77.68Y-35.6
X77.68Y-38.14
X80.22Y-35.6
X80.22Y-38.14
T3
G00X22.925Y-56.993
M15
G01X22.125Y-56.993
M16
G05
G00X22.925Y-65.643
M15
G01X22.125Y-65.643
M16
G05
G00X27.255Y-56.993
M15
G01X26.155Y-56.993
M16
G05
G00X27.255Y-65.643
M15
G01X26.155Y-65.643
M16
G05
M30
