%TF.GenerationSoftware,KiCad,Pcbnew,9.0.7-9.0.7~ubuntu24.04.1*%
%TF.CreationDate,2026-03-06T12:59:36-05:00*%
%TF.ProjectId,senior_design_pcb,73656e69-6f72-45f6-9465-7369676e5f70,rev?*%
%TF.SameCoordinates,Original*%
%TF.FileFunction,Paste,Top*%
%TF.FilePolarity,Positive*%
%FSLAX46Y46*%
G04 Gerber Fmt 4.6, Leading zero omitted, Abs format (unit mm)*
G04 Created by KiCad (PCBNEW 9.0.7-9.0.7~ubuntu24.04.1) date 2026-03-06 12:59:36*
%MOMM*%
%LPD*%
G01*
G04 APERTURE LIST*
G04 Aperture macros list*
%AMRoundRect*
0 Rectangle with rounded corners*
0 $1 Rounding radius*
0 $2 $3 $4 $5 $6 $7 $8 $9 X,Y pos of 4 corners*
0 Add a 4 corners polygon primitive as box body*
4,1,4,$2,$3,$4,$5,$6,$7,$8,$9,$2,$3,0*
0 Add four circle primitives for the rounded corners*
1,1,$1+$1,$2,$3*
1,1,$1+$1,$4,$5*
1,1,$1+$1,$6,$7*
1,1,$1+$1,$8,$9*
0 Add four rect primitives between the rounded corners*
20,1,$1+$1,$2,$3,$4,$5,0*
20,1,$1+$1,$4,$5,$6,$7,0*
20,1,$1+$1,$6,$7,$8,$9,0*
20,1,$1+$1,$8,$9,$2,$3,0*%
G04 Aperture macros list end*
%ADD10RoundRect,0.250000X-0.475000X0.337500X-0.475000X-0.337500X0.475000X-0.337500X0.475000X0.337500X0*%
%ADD11R,0.355600X0.838200*%
%ADD12RoundRect,0.250000X-0.337500X-0.475000X0.337500X-0.475000X0.337500X0.475000X-0.337500X0.475000X0*%
%ADD13RoundRect,0.250000X0.350000X0.450000X-0.350000X0.450000X-0.350000X-0.450000X0.350000X-0.450000X0*%
%ADD14RoundRect,0.250000X0.337500X0.475000X-0.337500X0.475000X-0.337500X-0.475000X0.337500X-0.475000X0*%
%ADD15RoundRect,0.100000X0.850000X0.100000X-0.850000X0.100000X-0.850000X-0.100000X0.850000X-0.100000X0*%
%ADD16R,1.803400X1.371600*%
%ADD17R,0.977900X0.558800*%
%ADD18RoundRect,0.250000X0.475000X-0.337500X0.475000X0.337500X-0.475000X0.337500X-0.475000X-0.337500X0*%
%ADD19RoundRect,0.243750X-0.456250X0.243750X-0.456250X-0.243750X0.456250X-0.243750X0.456250X0.243750X0*%
%ADD20R,0.558800X0.977900*%
%ADD21RoundRect,0.250000X0.275000X0.350000X-0.275000X0.350000X-0.275000X-0.350000X0.275000X-0.350000X0*%
%ADD22RoundRect,0.250000X0.350000X-0.275000X0.350000X0.275000X-0.350000X0.275000X-0.350000X-0.275000X0*%
%ADD23R,0.508000X1.193800*%
%ADD24RoundRect,0.243750X-0.243750X-0.456250X0.243750X-0.456250X0.243750X0.456250X-0.243750X0.456250X0*%
%ADD25R,1.193800X0.508000*%
%ADD26RoundRect,0.250000X0.450000X-0.350000X0.450000X0.350000X-0.450000X0.350000X-0.450000X-0.350000X0*%
%ADD27RoundRect,0.250000X-0.250000X0.250000X-0.250000X-0.250000X0.250000X-0.250000X0.250000X0.250000X0*%
%ADD28R,1.140000X0.600000*%
%ADD29R,1.140000X0.300000*%
%ADD30RoundRect,0.075000X0.548008X-0.441942X-0.441942X0.548008X-0.548008X0.441942X0.441942X-0.548008X0*%
%ADD31RoundRect,0.075000X0.548008X0.441942X0.441942X0.548008X-0.548008X-0.441942X-0.441942X-0.548008X0*%
%ADD32R,1.092200X1.295400*%
%ADD33RoundRect,0.375000X-0.375000X0.625000X-0.375000X-0.625000X0.375000X-0.625000X0.375000X0.625000X0*%
%ADD34RoundRect,0.500000X-1.400000X0.500000X-1.400000X-0.500000X1.400000X-0.500000X1.400000X0.500000X0*%
%ADD35RoundRect,0.243750X0.243750X0.456250X-0.243750X0.456250X-0.243750X-0.456250X0.243750X-0.456250X0*%
%ADD36R,1.168400X1.600200*%
G04 APERTURE END LIST*
D10*
%TO.C,C19*%
X48166002Y-49439502D03*
X48166002Y-51514502D03*
%TD*%
D11*
%TO.C,U6*%
X48044001Y-35041401D03*
X48693999Y-35041400D03*
X49343996Y-35041400D03*
X49343997Y-32958599D03*
X48044002Y-32958600D03*
%TD*%
D12*
%TO.C,C2*%
X33158501Y-55509000D03*
X35233501Y-55509000D03*
%TD*%
D13*
%TO.C,R4*%
X24600001Y-67800000D03*
X22599999Y-67800000D03*
%TD*%
D14*
%TO.C,C7*%
X35703502Y-46435940D03*
X33628502Y-46435940D03*
%TD*%
D15*
%TO.C,FT1*%
X43228001Y-69852999D03*
X43228000Y-69203001D03*
X43228000Y-68552999D03*
X43228002Y-67902998D03*
X43228000Y-67252999D03*
X43228001Y-66602999D03*
X43228000Y-65952998D03*
X43228000Y-65302999D03*
X43228001Y-64652998D03*
X43228002Y-64003000D03*
X43228002Y-63352999D03*
X43227999Y-62702997D03*
X43228000Y-62053000D03*
X43228001Y-61402999D03*
X36228001Y-61402999D03*
X36228002Y-62052997D03*
X36228002Y-62702999D03*
X36228000Y-63353000D03*
X36228002Y-64002999D03*
X36228001Y-64652999D03*
X36228002Y-65303000D03*
X36228002Y-65952999D03*
X36228001Y-66603000D03*
X36228000Y-67252998D03*
X36228000Y-67902999D03*
X36228003Y-68553001D03*
X36228002Y-69202998D03*
X36228001Y-69852999D03*
%TD*%
D16*
%TO.C,CR3*%
X42749998Y-26472000D03*
X42749998Y-30028000D03*
%TD*%
D17*
%TO.C,U12*%
X75434750Y-58649999D03*
X75434750Y-59600000D03*
X75434750Y-60550001D03*
X78165250Y-60550001D03*
X78165250Y-59600000D03*
X78165250Y-58649999D03*
%TD*%
D18*
%TO.C,C9*%
X39500000Y-41500000D03*
X39500000Y-39425000D03*
%TD*%
D13*
%TO.C,R23*%
X23700001Y-73000000D03*
X21699999Y-73000000D03*
%TD*%
D19*
%TO.C,LD1*%
X26000000Y-27500001D03*
X26000000Y-29375003D03*
%TD*%
D20*
%TO.C,U11*%
X43250000Y-77965253D03*
X44200000Y-77965251D03*
X45150000Y-77965251D03*
X45150000Y-75234747D03*
X44200000Y-75234749D03*
X43250000Y-75234749D03*
%TD*%
D16*
%TO.C,CR4*%
X47249999Y-26472000D03*
X47249999Y-30028000D03*
%TD*%
D14*
%TO.C,C8*%
X35703502Y-42977002D03*
X33628502Y-42977002D03*
%TD*%
D17*
%TO.C,U5*%
X30422651Y-60877799D03*
X30422651Y-61827800D03*
X30422651Y-62777801D03*
X33153151Y-62777801D03*
X33153151Y-61827800D03*
X33153151Y-60877799D03*
%TD*%
D21*
%TO.C,FB1*%
X33171382Y-57737925D03*
X30871386Y-57737925D03*
%TD*%
D11*
%TO.C,U7*%
X43980001Y-35066801D03*
X44629999Y-35066800D03*
X45279996Y-35066800D03*
X45279997Y-32983999D03*
X43980002Y-32984000D03*
%TD*%
D22*
%TO.C,FB2*%
X48166001Y-47127000D03*
X48166003Y-44827004D03*
%TD*%
D23*
%TO.C,U1*%
X71320001Y-53458699D03*
X72930001Y-53458699D03*
X72930001Y-49445499D03*
X71320001Y-49445499D03*
%TD*%
D24*
%TO.C,LD5*%
X52812499Y-34750000D03*
X54687501Y-34750000D03*
%TD*%
D25*
%TO.C,U4*%
X52200000Y-74590000D03*
X52200000Y-76200000D03*
X56213200Y-76200000D03*
X56213200Y-74590000D03*
%TD*%
D16*
%TO.C,CR6*%
X56250000Y-26472000D03*
X56250000Y-30028000D03*
%TD*%
D24*
%TO.C,LD3*%
X30624999Y-71150000D03*
X32500001Y-71150000D03*
%TD*%
D12*
%TO.C,C24*%
X46962243Y-74009822D03*
X49037243Y-74009822D03*
%TD*%
D14*
%TO.C,C20*%
X68253501Y-73162000D03*
X66178501Y-73162000D03*
%TD*%
D26*
%TO.C,R12*%
X46250001Y-63200001D03*
X46250001Y-61199999D03*
%TD*%
D10*
%TO.C,C5*%
X59919112Y-73289290D03*
X59919112Y-75364290D03*
%TD*%
D13*
%TO.C,R22*%
X23700000Y-76400000D03*
X21699998Y-76400000D03*
%TD*%
D12*
%TO.C,C3*%
X39125000Y-58000000D03*
X41200000Y-58000000D03*
%TD*%
D27*
%TO.C,D1*%
X32926002Y-49553002D03*
X32926002Y-52053002D03*
%TD*%
D23*
%TO.C,U10*%
X76445001Y-53542199D03*
X78055001Y-53542199D03*
X78055001Y-49528999D03*
X76445001Y-49528999D03*
%TD*%
D24*
%TO.C,LD4*%
X52874998Y-38750000D03*
X54750000Y-38750000D03*
%TD*%
D28*
%TO.C,J13*%
X27295001Y-58118250D03*
X27295001Y-58918250D03*
D29*
X27295001Y-60068250D03*
X27295001Y-61068249D03*
X27295001Y-61568250D03*
X27295001Y-62568250D03*
D28*
X27294999Y-63718249D03*
X27295001Y-64518250D03*
D29*
X27295001Y-63068249D03*
X27295003Y-62068250D03*
X27295000Y-60568250D03*
X27295001Y-59568250D03*
%TD*%
D16*
%TO.C,CR2*%
X38249999Y-26472000D03*
X38249999Y-30028000D03*
%TD*%
D12*
%TO.C,C21*%
X66612501Y-65600000D03*
X68687501Y-65600000D03*
%TD*%
D27*
%TO.C,D3*%
X35974002Y-49553002D03*
X35974002Y-52053002D03*
%TD*%
D30*
%TO.C,U2*%
X58417182Y-68198481D03*
X58770735Y-67844928D03*
X59124290Y-67491374D03*
X59477842Y-67137821D03*
X59831395Y-66784268D03*
X60184949Y-66430714D03*
X60538502Y-66077161D03*
X60892057Y-65723607D03*
X61245607Y-65370054D03*
X61599162Y-65016501D03*
X61952715Y-64662948D03*
X62306269Y-64309394D03*
X62659822Y-63955841D03*
X63013374Y-63602286D03*
X63366929Y-63248734D03*
X63720482Y-62895181D03*
D31*
X63720482Y-60172819D03*
X63366929Y-59819266D03*
X63013375Y-59465711D03*
X62659822Y-59112159D03*
X62306269Y-58758606D03*
X61952715Y-58405052D03*
X61599162Y-58051499D03*
X61245608Y-57697944D03*
X60892055Y-57344394D03*
X60538502Y-56990839D03*
X60184949Y-56637286D03*
X59831395Y-56283732D03*
X59477842Y-55930179D03*
X59124287Y-55576627D03*
X58770735Y-55223072D03*
X58417182Y-54869519D03*
D30*
X55694820Y-54869519D03*
X55341267Y-55223072D03*
X54987712Y-55576626D03*
X54634160Y-55930179D03*
X54280607Y-56283732D03*
X53927053Y-56637286D03*
X53573500Y-56990839D03*
X53219945Y-57344393D03*
X52866395Y-57697946D03*
X52512840Y-58051499D03*
X52159287Y-58405052D03*
X51805733Y-58758606D03*
X51452180Y-59112159D03*
X51098628Y-59465714D03*
X50745073Y-59819266D03*
X50391520Y-60172819D03*
D31*
X50391520Y-62895181D03*
X50745073Y-63248734D03*
X51098627Y-63602289D03*
X51452180Y-63955841D03*
X51805733Y-64309394D03*
X52159287Y-64662948D03*
X52512840Y-65016501D03*
X52866394Y-65370056D03*
X53219947Y-65723606D03*
X53573500Y-66077161D03*
X53927053Y-66430714D03*
X54280607Y-66784268D03*
X54634160Y-67137821D03*
X54987715Y-67491373D03*
X55341267Y-67844928D03*
X55694820Y-68198481D03*
%TD*%
D16*
%TO.C,CR5*%
X51749999Y-26472000D03*
X51749999Y-30028000D03*
%TD*%
D11*
%TO.C,U8*%
X39600004Y-35041401D03*
X40250002Y-35041400D03*
X40899999Y-35041400D03*
X40900000Y-32958599D03*
X39600005Y-32958600D03*
%TD*%
D16*
%TO.C,CR1*%
X33750000Y-26472000D03*
X33750000Y-30028000D03*
%TD*%
D13*
%TO.C,R8*%
X49420002Y-71130000D03*
X47420000Y-71130000D03*
%TD*%
D32*
%TO.C,XTAL2*%
X68169652Y-70120999D03*
X68169654Y-67821001D03*
X66369652Y-67821003D03*
X66369650Y-70121001D03*
%TD*%
D12*
%TO.C,C26*%
X30462501Y-65650000D03*
X32537501Y-65650000D03*
%TD*%
D33*
%TO.C,U3*%
X43966002Y-44477001D03*
X41666002Y-44477002D03*
D34*
X41666002Y-50777000D03*
D33*
X39366002Y-44477001D03*
%TD*%
D19*
%TO.C,LD2*%
X22750000Y-27500000D03*
X22750000Y-29375002D03*
%TD*%
D35*
%TO.C,LD6*%
X28217499Y-76354998D03*
X26342497Y-76355000D03*
%TD*%
D18*
%TO.C,C10*%
X43666002Y-41514502D03*
X43666002Y-39439502D03*
%TD*%
D35*
%TO.C,LD7*%
X28217500Y-73015001D03*
X26342498Y-73015003D03*
%TD*%
D23*
%TO.C,U9*%
X66195001Y-53579700D03*
X67805001Y-53579700D03*
X67805001Y-49566500D03*
X66195001Y-49566500D03*
%TD*%
D10*
%TO.C,C6*%
X63152001Y-73648500D03*
X63152001Y-75723500D03*
%TD*%
D36*
%TO.C,XTAL1*%
X60449263Y-71060661D03*
X63294063Y-71060661D03*
%TD*%
D13*
%TO.C,R14*%
X32500003Y-68400000D03*
X30500001Y-68400000D03*
%TD*%
M02*
