%TF.GenerationSoftware,KiCad,Pcbnew,9.0.7-9.0.7~ubuntu24.04.1*%
%TF.CreationDate,2026-03-06T12:59:37-05:00*%
%TF.ProjectId,senior_design_pcb,73656e69-6f72-45f6-9465-7369676e5f70,rev?*%
%TF.SameCoordinates,Original*%
%TF.FileFunction,Soldermask,Bot*%
%TF.FilePolarity,Negative*%
%FSLAX46Y46*%
G04 Gerber Fmt 4.6, Leading zero omitted, Abs format (unit mm)*
G04 Created by KiCad (PCBNEW 9.0.7-9.0.7~ubuntu24.04.1) date 2026-03-06 12:59:37*
%MOMM*%
%LPD*%
G01*
G04 APERTURE LIST*
G04 Aperture macros list*
%AMRoundRect*
0 Rectangle with rounded corners*
0 $1 Rounding radius*
0 $2 $3 $4 $5 $6 $7 $8 $9 X,Y pos of 4 corners*
0 Add a 4 corners polygon primitive as box body*
4,1,4,$2,$3,$4,$5,$6,$7,$8,$9,$2,$3,0*
0 Add four circle primitives for the rounded corners*
1,1,$1+$1,$2,$3*
1,1,$1+$1,$4,$5*
1,1,$1+$1,$6,$7*
1,1,$1+$1,$8,$9*
0 Add four rect primitives between the rounded corners*
20,1,$1+$1,$2,$3,$4,$5,0*
20,1,$1+$1,$4,$5,$6,$7,0*
20,1,$1+$1,$6,$7,$8,$9,0*
20,1,$1+$1,$8,$9,$2,$3,0*%
G04 Aperture macros list end*
%ADD10C,1.000000*%
%ADD11C,3.200000*%
%ADD12R,1.700000X1.700000*%
%ADD13C,1.700000*%
%ADD14RoundRect,0.250000X0.600000X0.750000X-0.600000X0.750000X-0.600000X-0.750000X0.600000X-0.750000X0*%
%ADD15O,1.700000X2.000000*%
%ADD16RoundRect,0.250000X0.725000X-0.600000X0.725000X0.600000X-0.725000X0.600000X-0.725000X-0.600000X0*%
%ADD17O,1.950000X1.700000*%
%ADD18C,1.524000*%
%ADD19RoundRect,0.250000X0.600000X0.725000X-0.600000X0.725000X-0.600000X-0.725000X0.600000X-0.725000X0*%
%ADD20O,1.700000X1.950000*%
%ADD21RoundRect,0.250000X-0.600000X-0.725000X0.600000X-0.725000X0.600000X0.725000X-0.600000X0.725000X0*%
%ADD22C,0.600000*%
%ADD23O,1.904000X1.104000*%
%ADD24O,2.204000X1.104000*%
%ADD25RoundRect,0.102000X-0.754000X0.754000X-0.754000X-0.754000X0.754000X-0.754000X0.754000X0.754000X0*%
%ADD26C,1.712000*%
%ADD27RoundRect,0.250000X-0.450000X0.350000X-0.450000X-0.350000X0.450000X-0.350000X0.450000X0.350000X0*%
%ADD28RoundRect,0.250000X0.337500X0.475000X-0.337500X0.475000X-0.337500X-0.475000X0.337500X-0.475000X0*%
%ADD29RoundRect,0.250000X-0.475000X0.337500X-0.475000X-0.337500X0.475000X-0.337500X0.475000X0.337500X0*%
%ADD30RoundRect,0.250000X-0.350000X-0.450000X0.350000X-0.450000X0.350000X0.450000X-0.350000X0.450000X0*%
%ADD31RoundRect,0.250000X0.350000X0.450000X-0.350000X0.450000X-0.350000X-0.450000X0.350000X-0.450000X0*%
%ADD32RoundRect,0.250000X0.450000X-0.350000X0.450000X0.350000X-0.450000X0.350000X-0.450000X-0.350000X0*%
%ADD33RoundRect,0.250000X-0.337500X-0.475000X0.337500X-0.475000X0.337500X0.475000X-0.337500X0.475000X0*%
%ADD34R,0.558800X0.977900*%
%ADD35R,0.977900X0.558800*%
%ADD36RoundRect,0.250000X0.475000X-0.337500X0.475000X0.337500X-0.475000X0.337500X-0.475000X-0.337500X0*%
%ADD37C,0.660400*%
G04 APERTURE END LIST*
D10*
%TO.C,TP10*%
X41300000Y-55800000D03*
%TD*%
D11*
%TO.C,H2*%
X23500001Y-82900000D03*
%TD*%
%TO.C,H3*%
X85000000Y-21500000D03*
%TD*%
D10*
%TO.C,TP13*%
X34800000Y-72600000D03*
%TD*%
D12*
%TO.C,SW3-Button1*%
X48800000Y-82400000D03*
D13*
X48800000Y-79860000D03*
%TD*%
D10*
%TO.C,TP9*%
X44900000Y-55800000D03*
%TD*%
D14*
%TO.C,J3-IR-RX2*%
X75900000Y-22800000D03*
D15*
X73400000Y-22800000D03*
%TD*%
D10*
%TO.C,TP8*%
X43300000Y-58500000D03*
%TD*%
D11*
%TO.C,H1*%
X23500001Y-21500000D03*
%TD*%
D12*
%TO.C,J2-Sparepins1*%
X53900000Y-82400000D03*
D13*
X56440000Y-82400000D03*
X58980000Y-82399999D03*
X61520000Y-82400000D03*
X64060000Y-82400000D03*
X66600000Y-82400000D03*
X69140001Y-82399999D03*
X71680000Y-82400001D03*
%TD*%
D16*
%TO.C,J12-JOYSTICK-U1*%
X83400000Y-73100000D03*
D17*
X83400000Y-70600000D03*
X83400000Y-68100000D03*
X83400000Y-65600001D03*
X83400001Y-63100000D03*
%TD*%
D16*
%TO.C,J6-JOYSTICK-A1*%
X83400000Y-56200000D03*
D17*
X83400000Y-53700000D03*
X83400000Y-51200000D03*
X83400000Y-48700001D03*
X83400001Y-46200000D03*
%TD*%
D18*
%TO.C,J11-LEDMatrix1*%
X80220000Y-35600000D03*
X80220000Y-38140000D03*
X77680000Y-35600000D03*
X77680000Y-38140000D03*
X75139999Y-35600001D03*
X75139999Y-38140001D03*
X72600000Y-35600000D03*
X72599999Y-38140001D03*
X70060000Y-35600000D03*
X70059999Y-38140001D03*
X67520000Y-35600000D03*
X67519998Y-38140001D03*
X64979998Y-35600001D03*
X64980000Y-38140000D03*
X62440000Y-35599999D03*
X62440001Y-38140001D03*
%TD*%
D11*
%TO.C,H4*%
X85000000Y-82900000D03*
%TD*%
D10*
%TO.C,TP14*%
X33800000Y-74800000D03*
%TD*%
D19*
%TO.C,J9-Driver1*%
X41200000Y-22800000D03*
D20*
X38700000Y-22800000D03*
X36200000Y-22800000D03*
X33700000Y-22800000D03*
%TD*%
D21*
%TO.C,J5-LCDconsole1*%
X32100000Y-81500001D03*
D20*
X34600000Y-81500001D03*
X37100000Y-81500001D03*
X39600000Y-81500001D03*
X42100000Y-81500001D03*
%TD*%
D22*
%TO.C,J13*%
X26225001Y-58428250D03*
X26225001Y-64208250D03*
D23*
X22525000Y-56993251D03*
X22525001Y-65643249D03*
D24*
X26705001Y-56993250D03*
X26705001Y-65643250D03*
%TD*%
D25*
%TO.C,J1-JTAG1*%
X24800000Y-35640000D03*
D26*
X27340000Y-35640000D03*
X24800000Y-38180000D03*
X27340000Y-38180000D03*
X24800000Y-40719999D03*
X27340000Y-40720001D03*
X24800000Y-43260000D03*
X27340000Y-43260000D03*
X24800000Y-45800000D03*
X27340000Y-45800000D03*
%TD*%
D10*
%TO.C,TP7*%
X55250000Y-42000000D03*
%TD*%
%TO.C,TP11*%
X44900000Y-53700000D03*
%TD*%
D19*
%TO.C,J10-Driver2*%
X55900000Y-22800000D03*
D20*
X53400000Y-22800000D03*
X50900000Y-22800000D03*
X48400000Y-22800000D03*
%TD*%
D14*
%TO.C,J3-IR-RX1*%
X66200000Y-22800000D03*
D15*
X63700000Y-22800000D03*
%TD*%
D10*
%TO.C,TP12*%
X41300000Y-53700000D03*
%TD*%
D27*
%TO.C,R10*%
X73858000Y-77616000D03*
X73858000Y-79616000D03*
%TD*%
D28*
%TO.C,C12*%
X60843501Y-60784000D03*
X58768501Y-60784000D03*
%TD*%
D29*
%TO.C,C27*%
X69750001Y-53005600D03*
X69750001Y-55080600D03*
%TD*%
D30*
%TO.C,R1*%
X29132000Y-58938000D03*
X31132002Y-58938000D03*
%TD*%
D31*
%TO.C,R20*%
X59000002Y-38750000D03*
X57000000Y-38750000D03*
%TD*%
D27*
%TO.C,R19*%
X74750001Y-48103100D03*
X74750001Y-50103102D03*
%TD*%
D32*
%TO.C,R7*%
X54500001Y-64150000D03*
X54500001Y-62149998D03*
%TD*%
D31*
%TO.C,R21*%
X59000002Y-34750000D03*
X57000000Y-34750000D03*
%TD*%
D28*
%TO.C,C17*%
X47687501Y-59400000D03*
X45612501Y-59400000D03*
%TD*%
D29*
%TO.C,C29*%
X74750000Y-53005600D03*
X74750000Y-55080600D03*
%TD*%
D30*
%TO.C,R11*%
X46750001Y-38000000D03*
X48750003Y-38000000D03*
%TD*%
%TO.C,R13*%
X38199998Y-38000000D03*
X40200000Y-38000000D03*
%TD*%
D33*
%TO.C,C22*%
X55050002Y-72900000D03*
X57125002Y-72900000D03*
%TD*%
D34*
%TO.C,U14*%
X79500000Y-55000000D03*
X78550000Y-55000000D03*
X77599999Y-54999999D03*
X77600000Y-52269498D03*
X78550000Y-52269498D03*
X79500001Y-52269499D03*
%TD*%
D30*
%TO.C,R6*%
X51050000Y-72900002D03*
X53050002Y-72900002D03*
%TD*%
D33*
%TO.C,C14*%
X50412501Y-47200000D03*
X52487501Y-47200000D03*
%TD*%
D35*
%TO.C,U13*%
X72634749Y-68149999D03*
X72634749Y-67200000D03*
X72634748Y-66250000D03*
X75365251Y-66250001D03*
X75365251Y-67200000D03*
X75365252Y-68150000D03*
%TD*%
D29*
%TO.C,C23*%
X70800000Y-57925000D03*
X70800000Y-60000000D03*
%TD*%
D27*
%TO.C,R18*%
X64500001Y-48103100D03*
X64500001Y-50103102D03*
%TD*%
D36*
%TO.C,C11*%
X57056001Y-66071500D03*
X57056001Y-63996500D03*
%TD*%
D29*
%TO.C,C28*%
X64500001Y-53005601D03*
X64500001Y-55080601D03*
%TD*%
D32*
%TO.C,R5*%
X22750000Y-33750002D03*
X22750000Y-31750000D03*
%TD*%
D27*
%TO.C,R16*%
X69750001Y-48103100D03*
X69750001Y-50103102D03*
%TD*%
D36*
%TO.C,C1*%
X29471601Y-56267100D03*
X29471601Y-54192100D03*
%TD*%
D33*
%TO.C,C16*%
X50412501Y-44199999D03*
X52487501Y-44199999D03*
%TD*%
D30*
%TO.C,R15*%
X42500001Y-38000000D03*
X44500003Y-38000000D03*
%TD*%
D27*
%TO.C,R9*%
X72900000Y-59962500D03*
X72900000Y-61962500D03*
%TD*%
%TO.C,R2*%
X29624001Y-64795999D03*
X29624001Y-66796001D03*
%TD*%
D31*
%TO.C,R3*%
X28000000Y-32000000D03*
X25999998Y-32000000D03*
%TD*%
D33*
%TO.C,C15*%
X56212501Y-70400000D03*
X58287501Y-70400000D03*
%TD*%
D29*
%TO.C,C18*%
X64022801Y-66233600D03*
X64022801Y-68308600D03*
%TD*%
D36*
%TO.C,C13*%
X59556001Y-52534000D03*
X59556001Y-50459000D03*
%TD*%
D29*
%TO.C,C25*%
X71589998Y-75619499D03*
X71589998Y-77694499D03*
%TD*%
D33*
%TO.C,C4*%
X38762500Y-62748000D03*
X40837500Y-62748000D03*
%TD*%
D37*
X35750000Y-39000000D03*
X35750000Y-39750000D03*
X40000000Y-66600000D03*
X41249999Y-67902998D03*
X29471601Y-57419880D03*
X58000000Y-52500000D03*
X74750001Y-46900000D03*
X21700000Y-75000000D03*
X65200000Y-46400000D03*
X41800000Y-49100000D03*
X41000000Y-42700000D03*
X71600000Y-74400000D03*
X49650001Y-68800000D03*
X57334351Y-67115650D03*
X78600000Y-51000000D03*
X40400000Y-49100000D03*
X69750001Y-46900000D03*
X48800000Y-59100000D03*
X56212501Y-68900000D03*
X46400000Y-45457004D03*
X24000000Y-33750000D03*
X59556001Y-53784000D03*
X56100000Y-65100000D03*
X50000000Y-50000000D03*
X50412501Y-45700000D03*
X42200000Y-42700000D03*
X51450001Y-71400000D03*
X42500000Y-46300000D03*
X62000545Y-60478544D03*
X80200000Y-59600000D03*
X47687501Y-58100000D03*
X46400000Y-46600000D03*
X74000000Y-66800000D03*
X68600000Y-57600000D03*
X44219444Y-73845001D03*
X49312502Y-43100000D03*
X21700000Y-71500000D03*
X54860294Y-69589707D03*
X60800000Y-59500000D03*
X41000000Y-46300000D03*
X46650001Y-51600000D03*
X56600000Y-61100000D03*
X63718001Y-65014400D03*
X58750001Y-65300000D03*
X54850001Y-74595000D03*
X28650001Y-52400000D03*
X69000000Y-59882900D03*
X74200000Y-58800000D03*
X51250001Y-68800000D03*
X48450001Y-69800000D03*
X68200000Y-55200000D03*
X62478158Y-68202899D03*
X78400000Y-56200000D03*
X65250001Y-74650000D03*
X71600000Y-70200000D03*
X37800000Y-36400000D03*
X43200000Y-54600000D03*
X38250001Y-68800000D03*
X31435401Y-61395564D03*
X34000001Y-65650000D03*
X47700000Y-62400000D03*
X58300000Y-64000000D03*
X38297001Y-67902999D03*
X34250001Y-63800000D03*
X71000000Y-66600000D03*
X49526736Y-51200000D03*
X28393801Y-65000000D03*
X59750001Y-76650000D03*
X29250001Y-71150000D03*
X64750001Y-75900000D03*
X70000001Y-68400000D03*
X68600000Y-63800000D03*
X64781978Y-57881242D03*
X28581331Y-57614070D03*
X54000001Y-75650000D03*
X42400000Y-57200000D03*
X57750001Y-56800000D03*
X58750001Y-59000000D03*
X65000001Y-70150000D03*
X59500001Y-49150000D03*
X74800000Y-56400000D03*
X54650001Y-76400000D03*
X57066240Y-68793124D03*
X44000001Y-46150000D03*
X76800000Y-59600000D03*
X45250001Y-65000000D03*
X59999045Y-62796512D03*
X44400000Y-59700000D03*
X53250001Y-62150000D03*
X31850001Y-46400000D03*
X48756676Y-63981075D03*
X48682647Y-57049733D03*
X26000000Y-30500000D03*
X22750000Y-30500000D03*
X37625001Y-62748000D03*
X54926000Y-46926000D03*
X49582388Y-53354698D03*
X34361910Y-67438090D03*
X30000000Y-75600000D03*
X43650001Y-72200000D03*
X46650001Y-66400000D03*
X43650001Y-73200000D03*
X47875001Y-66575001D03*
X45450001Y-66400000D03*
X43650001Y-71200000D03*
X30000000Y-72800000D03*
X33674247Y-66920970D03*
X74200000Y-60400000D03*
X79000000Y-57000000D03*
X50247001Y-54200000D03*
X55025001Y-48025001D03*
X59000000Y-40750000D03*
X56405150Y-58005150D03*
X54870922Y-58670923D03*
X55774950Y-59000000D03*
X66195002Y-57454999D03*
X66195001Y-51400000D03*
X62562500Y-61362500D03*
X71320001Y-51400000D03*
X55050001Y-65400000D03*
X59000001Y-71900000D03*
X76800000Y-70200000D03*
X66000000Y-59000000D03*
X60226347Y-63626347D03*
X64400000Y-61000000D03*
X59050001Y-58000000D03*
X76445001Y-51400000D03*
X53282453Y-59200000D03*
X54149742Y-59509020D03*
X29039801Y-63052800D03*
X29000000Y-60400000D03*
X48712104Y-36257258D03*
X44637485Y-36251749D03*
X40245124Y-36304749D03*
X55750000Y-38750000D03*
X55800000Y-34750000D03*
M02*
