%TF.GenerationSoftware,KiCad,Pcbnew,9.0.7-9.0.7~ubuntu24.04.1*%
%TF.CreationDate,2026-03-06T12:59:37-05:00*%
%TF.ProjectId,senior_design_pcb,73656e69-6f72-45f6-9465-7369676e5f70,rev?*%
%TF.SameCoordinates,Original*%
%TF.FileFunction,Soldermask,Top*%
%TF.FilePolarity,Negative*%
%FSLAX46Y46*%
G04 Gerber Fmt 4.6, Leading zero omitted, Abs format (unit mm)*
G04 Created by KiCad (PCBNEW 9.0.7-9.0.7~ubuntu24.04.1) date 2026-03-06 12:59:37*
%MOMM*%
%LPD*%
G01*
G04 APERTURE LIST*
G04 Aperture macros list*
%AMRoundRect*
0 Rectangle with rounded corners*
0 $1 Rounding radius*
0 $2 $3 $4 $5 $6 $7 $8 $9 X,Y pos of 4 corners*
0 Add a 4 corners polygon primitive as box body*
4,1,4,$2,$3,$4,$5,$6,$7,$8,$9,$2,$3,0*
0 Add four circle primitives for the rounded corners*
1,1,$1+$1,$2,$3*
1,1,$1+$1,$4,$5*
1,1,$1+$1,$6,$7*
1,1,$1+$1,$8,$9*
0 Add four rect primitives between the rounded corners*
20,1,$1+$1,$2,$3,$4,$5,0*
20,1,$1+$1,$4,$5,$6,$7,0*
20,1,$1+$1,$6,$7,$8,$9,0*
20,1,$1+$1,$8,$9,$2,$3,0*%
G04 Aperture macros list end*
%ADD10C,0.010000*%
%ADD11RoundRect,0.250000X-0.475000X0.337500X-0.475000X-0.337500X0.475000X-0.337500X0.475000X0.337500X0*%
%ADD12C,1.000000*%
%ADD13R,0.355600X0.838200*%
%ADD14RoundRect,0.250000X-0.337500X-0.475000X0.337500X-0.475000X0.337500X0.475000X-0.337500X0.475000X0*%
%ADD15RoundRect,0.250000X0.350000X0.450000X-0.350000X0.450000X-0.350000X-0.450000X0.350000X-0.450000X0*%
%ADD16RoundRect,0.250000X0.337500X0.475000X-0.337500X0.475000X-0.337500X-0.475000X0.337500X-0.475000X0*%
%ADD17RoundRect,0.100000X0.850000X0.100000X-0.850000X0.100000X-0.850000X-0.100000X0.850000X-0.100000X0*%
%ADD18C,3.200000*%
%ADD19R,1.803400X1.371600*%
%ADD20R,0.977900X0.558800*%
%ADD21RoundRect,0.250000X0.475000X-0.337500X0.475000X0.337500X-0.475000X0.337500X-0.475000X-0.337500X0*%
%ADD22RoundRect,0.243750X-0.456250X0.243750X-0.456250X-0.243750X0.456250X-0.243750X0.456250X0.243750X0*%
%ADD23R,0.558800X0.977900*%
%ADD24R,1.700000X1.700000*%
%ADD25C,1.700000*%
%ADD26RoundRect,0.250000X0.275000X0.350000X-0.275000X0.350000X-0.275000X-0.350000X0.275000X-0.350000X0*%
%ADD27RoundRect,0.250000X0.600000X0.750000X-0.600000X0.750000X-0.600000X-0.750000X0.600000X-0.750000X0*%
%ADD28O,1.700000X2.000000*%
%ADD29RoundRect,0.250000X0.350000X-0.275000X0.350000X0.275000X-0.350000X0.275000X-0.350000X-0.275000X0*%
%ADD30R,0.508000X1.193800*%
%ADD31RoundRect,0.243750X-0.243750X-0.456250X0.243750X-0.456250X0.243750X0.456250X-0.243750X0.456250X0*%
%ADD32R,1.193800X0.508000*%
%ADD33RoundRect,0.250000X0.725000X-0.600000X0.725000X0.600000X-0.725000X0.600000X-0.725000X-0.600000X0*%
%ADD34O,1.950000X1.700000*%
%ADD35RoundRect,0.250000X0.450000X-0.350000X0.450000X0.350000X-0.450000X0.350000X-0.450000X-0.350000X0*%
%ADD36C,1.524000*%
%ADD37RoundRect,0.250000X-0.250000X0.250000X-0.250000X-0.250000X0.250000X-0.250000X0.250000X0.250000X0*%
%ADD38RoundRect,0.250000X0.600000X0.725000X-0.600000X0.725000X-0.600000X-0.725000X0.600000X-0.725000X0*%
%ADD39O,1.700000X1.950000*%
%ADD40RoundRect,0.250000X-0.600000X-0.725000X0.600000X-0.725000X0.600000X0.725000X-0.600000X0.725000X0*%
%ADD41C,0.600000*%
%ADD42O,1.904000X1.104000*%
%ADD43O,2.204000X1.104000*%
%ADD44RoundRect,0.102000X-0.754000X0.754000X-0.754000X-0.754000X0.754000X-0.754000X0.754000X0.754000X0*%
%ADD45C,1.712000*%
%ADD46RoundRect,0.075000X0.548008X-0.441942X-0.441942X0.548008X-0.548008X0.441942X0.441942X-0.548008X0*%
%ADD47RoundRect,0.075000X0.548008X0.441942X0.441942X0.548008X-0.548008X-0.441942X-0.441942X-0.548008X0*%
%ADD48R,1.092200X1.295400*%
%ADD49RoundRect,0.375000X-0.375000X0.625000X-0.375000X-0.625000X0.375000X-0.625000X0.375000X0.625000X0*%
%ADD50RoundRect,0.500000X-1.400000X0.500000X-1.400000X-0.500000X1.400000X-0.500000X1.400000X0.500000X0*%
%ADD51RoundRect,0.243750X0.243750X0.456250X-0.243750X0.456250X-0.243750X-0.456250X0.243750X-0.456250X0*%
%ADD52R,1.168400X1.600200*%
%ADD53C,0.660400*%
G04 APERTURE END LIST*
D10*
%TO.C,J13*%
X27915001Y-64068250D02*
X26675001Y-64068250D01*
X26675001Y-63368250D01*
X27914999Y-63368248D01*
X27915001Y-64068250D01*
G36*
X27915001Y-64068250D02*
G01*
X26675001Y-64068250D01*
X26675001Y-63368250D01*
X27914999Y-63368248D01*
X27915001Y-64068250D01*
G37*
X27915000Y-58568251D02*
X27915001Y-59268252D01*
X26675002Y-59268251D01*
X26675001Y-58568250D01*
X27915000Y-58568251D01*
G36*
X27915000Y-58568251D02*
G01*
X27915001Y-59268252D01*
X26675002Y-59268251D01*
X26675001Y-58568250D01*
X27915000Y-58568251D01*
G37*
X27915001Y-60268250D02*
X26675001Y-60268250D01*
X26675001Y-59868250D01*
X27915000Y-59868249D01*
X27915001Y-60268250D01*
G36*
X27915001Y-60268250D02*
G01*
X26675001Y-60268250D01*
X26675001Y-59868250D01*
X27915000Y-59868249D01*
X27915001Y-60268250D01*
G37*
X27915001Y-60768250D02*
X26675002Y-60768251D01*
X26675001Y-60368250D01*
X27915000Y-60368247D01*
X27915001Y-60768250D01*
G36*
X27915001Y-60768250D02*
G01*
X26675002Y-60768251D01*
X26675001Y-60368250D01*
X27915000Y-60368247D01*
X27915001Y-60768250D01*
G37*
X27915000Y-62868252D02*
X27915000Y-63268251D01*
X26675001Y-63268250D01*
X26675001Y-62868250D01*
X27915000Y-62868252D01*
G36*
X27915000Y-62868252D02*
G01*
X27915000Y-63268251D01*
X26675001Y-63268250D01*
X26675001Y-62868250D01*
X27915000Y-62868252D01*
G37*
X27915001Y-58468250D02*
X26675001Y-58468250D01*
X26675001Y-57768250D01*
X27915001Y-57768249D01*
X27915001Y-58468250D01*
G36*
X27915001Y-58468250D02*
G01*
X26675001Y-58468250D01*
X26675001Y-57768250D01*
X27915001Y-57768249D01*
X27915001Y-58468250D01*
G37*
X27915001Y-59368251D02*
X27914999Y-59768250D01*
X26675000Y-59768250D01*
X26675001Y-59368250D01*
X27915001Y-59368251D01*
G36*
X27915001Y-59368251D02*
G01*
X27914999Y-59768250D01*
X26675000Y-59768250D01*
X26675001Y-59368250D01*
X27915001Y-59368251D01*
G37*
X27914999Y-61268250D02*
X26675001Y-61268250D01*
X26675001Y-60868250D01*
X27915001Y-60868250D01*
X27914999Y-61268250D01*
G36*
X27914999Y-61268250D02*
G01*
X26675001Y-61268250D01*
X26675001Y-60868250D01*
X27915001Y-60868250D01*
X27914999Y-61268250D01*
G37*
X27915001Y-61368251D02*
X27915001Y-61768250D01*
X26675001Y-61768250D01*
X26675001Y-61368250D01*
X27915001Y-61368251D01*
G36*
X27915001Y-61368251D02*
G01*
X27915001Y-61768250D01*
X26675001Y-61768250D01*
X26675001Y-61368250D01*
X27915001Y-61368251D01*
G37*
X27915002Y-62268250D02*
X26675001Y-62268251D01*
X26674999Y-61868250D01*
X27915001Y-61868250D01*
X27915002Y-62268250D01*
G36*
X27915002Y-62268250D02*
G01*
X26675001Y-62268251D01*
X26674999Y-61868250D01*
X27915001Y-61868250D01*
X27915002Y-62268250D01*
G37*
X27915000Y-62768249D02*
X26675001Y-62768250D01*
X26675001Y-62368250D01*
X27915001Y-62368250D01*
X27915000Y-62768249D01*
G36*
X27915000Y-62768249D02*
G01*
X26675001Y-62768250D01*
X26675001Y-62368250D01*
X27915001Y-62368250D01*
X27915000Y-62768249D01*
G37*
X27915002Y-64868250D02*
X26675001Y-64868250D01*
X26675001Y-64168250D01*
X27915001Y-64168250D01*
X27915002Y-64868250D01*
G36*
X27915002Y-64868250D02*
G01*
X26675001Y-64868250D01*
X26675001Y-64168250D01*
X27915001Y-64168250D01*
X27915002Y-64868250D01*
G37*
%TD*%
D11*
%TO.C,C19*%
X48166002Y-49439502D03*
X48166002Y-51514502D03*
%TD*%
D12*
%TO.C,TP10*%
X41300000Y-55800000D03*
%TD*%
D13*
%TO.C,U6*%
X48044001Y-35041401D03*
X48693999Y-35041400D03*
X49343996Y-35041400D03*
X49343997Y-32958599D03*
X48044002Y-32958600D03*
%TD*%
D14*
%TO.C,C2*%
X33158501Y-55509000D03*
X35233501Y-55509000D03*
%TD*%
D15*
%TO.C,R4*%
X24600001Y-67800000D03*
X22599999Y-67800000D03*
%TD*%
D16*
%TO.C,C7*%
X35703502Y-46435940D03*
X33628502Y-46435940D03*
%TD*%
D17*
%TO.C,FT1*%
X43228001Y-69852999D03*
X43228000Y-69203001D03*
X43228000Y-68552999D03*
X43228002Y-67902998D03*
X43228000Y-67252999D03*
X43228001Y-66602999D03*
X43228000Y-65952998D03*
X43228000Y-65302999D03*
X43228001Y-64652998D03*
X43228002Y-64003000D03*
X43228002Y-63352999D03*
X43227999Y-62702997D03*
X43228000Y-62053000D03*
X43228001Y-61402999D03*
X36228001Y-61402999D03*
X36228002Y-62052997D03*
X36228002Y-62702999D03*
X36228000Y-63353000D03*
X36228002Y-64002999D03*
X36228001Y-64652999D03*
X36228002Y-65303000D03*
X36228002Y-65952999D03*
X36228001Y-66603000D03*
X36228000Y-67252998D03*
X36228000Y-67902999D03*
X36228003Y-68553001D03*
X36228002Y-69202998D03*
X36228001Y-69852999D03*
%TD*%
D18*
%TO.C,H2*%
X23500001Y-82900000D03*
%TD*%
D19*
%TO.C,CR3*%
X42749998Y-26472000D03*
X42749998Y-30028000D03*
%TD*%
D18*
%TO.C,H3*%
X85000000Y-21500000D03*
%TD*%
D20*
%TO.C,U12*%
X75434750Y-58649999D03*
X75434750Y-59600000D03*
X75434750Y-60550001D03*
X78165250Y-60550001D03*
X78165250Y-59600000D03*
X78165250Y-58649999D03*
%TD*%
D21*
%TO.C,C9*%
X39500000Y-41500000D03*
X39500000Y-39425000D03*
%TD*%
D15*
%TO.C,R23*%
X23700001Y-73000000D03*
X21699999Y-73000000D03*
%TD*%
D12*
%TO.C,TP13*%
X34800000Y-72600000D03*
%TD*%
D22*
%TO.C,LD1*%
X26000000Y-27500001D03*
X26000000Y-29375003D03*
%TD*%
D23*
%TO.C,U11*%
X43250000Y-77965253D03*
X44200000Y-77965251D03*
X45150000Y-77965251D03*
X45150000Y-75234747D03*
X44200000Y-75234749D03*
X43250000Y-75234749D03*
%TD*%
D19*
%TO.C,CR4*%
X47249999Y-26472000D03*
X47249999Y-30028000D03*
%TD*%
D16*
%TO.C,C8*%
X35703502Y-42977002D03*
X33628502Y-42977002D03*
%TD*%
D20*
%TO.C,U5*%
X30422651Y-60877799D03*
X30422651Y-61827800D03*
X30422651Y-62777801D03*
X33153151Y-62777801D03*
X33153151Y-61827800D03*
X33153151Y-60877799D03*
%TD*%
D24*
%TO.C,SW3-Button1*%
X48800000Y-82400000D03*
D25*
X48800000Y-79860000D03*
%TD*%
D12*
%TO.C,TP9*%
X44900000Y-55800000D03*
%TD*%
D26*
%TO.C,FB1*%
X33171382Y-57737925D03*
X30871386Y-57737925D03*
%TD*%
D27*
%TO.C,J3-IR-RX2*%
X75900000Y-22800000D03*
D28*
X73400000Y-22800000D03*
%TD*%
D12*
%TO.C,TP8*%
X43300000Y-58500000D03*
%TD*%
D18*
%TO.C,H1*%
X23500001Y-21500000D03*
%TD*%
D13*
%TO.C,U7*%
X43980001Y-35066801D03*
X44629999Y-35066800D03*
X45279996Y-35066800D03*
X45279997Y-32983999D03*
X43980002Y-32984000D03*
%TD*%
D29*
%TO.C,FB2*%
X48166001Y-47127000D03*
X48166003Y-44827004D03*
%TD*%
D30*
%TO.C,U1*%
X71320001Y-53458699D03*
X72930001Y-53458699D03*
X72930001Y-49445499D03*
X71320001Y-49445499D03*
%TD*%
D31*
%TO.C,LD5*%
X52812499Y-34750000D03*
X54687501Y-34750000D03*
%TD*%
D24*
%TO.C,J2-Sparepins1*%
X53900000Y-82400000D03*
D25*
X56440000Y-82400000D03*
X58980000Y-82399999D03*
X61520000Y-82400000D03*
X64060000Y-82400000D03*
X66600000Y-82400000D03*
X69140001Y-82399999D03*
X71680000Y-82400001D03*
%TD*%
D32*
%TO.C,U4*%
X52200000Y-74590000D03*
X52200000Y-76200000D03*
X56213200Y-76200000D03*
X56213200Y-74590000D03*
%TD*%
D33*
%TO.C,J12-JOYSTICK-U1*%
X83400000Y-73100000D03*
D34*
X83400000Y-70600000D03*
X83400000Y-68100000D03*
X83400000Y-65600001D03*
X83400001Y-63100000D03*
%TD*%
D19*
%TO.C,CR6*%
X56250000Y-26472000D03*
X56250000Y-30028000D03*
%TD*%
D31*
%TO.C,LD3*%
X30624999Y-71150000D03*
X32500001Y-71150000D03*
%TD*%
D14*
%TO.C,C24*%
X46962243Y-74009822D03*
X49037243Y-74009822D03*
%TD*%
D33*
%TO.C,J6-JOYSTICK-A1*%
X83400000Y-56200000D03*
D34*
X83400000Y-53700000D03*
X83400000Y-51200000D03*
X83400000Y-48700001D03*
X83400001Y-46200000D03*
%TD*%
D16*
%TO.C,C20*%
X68253501Y-73162000D03*
X66178501Y-73162000D03*
%TD*%
D35*
%TO.C,R12*%
X46250001Y-63200001D03*
X46250001Y-61199999D03*
%TD*%
D11*
%TO.C,C5*%
X59919112Y-73289290D03*
X59919112Y-75364290D03*
%TD*%
D15*
%TO.C,R22*%
X23700000Y-76400000D03*
X21699998Y-76400000D03*
%TD*%
D36*
%TO.C,J11-LEDMatrix1*%
X80220000Y-35600000D03*
X80220000Y-38140000D03*
X77680000Y-35600000D03*
X77680000Y-38140000D03*
X75139999Y-35600001D03*
X75139999Y-38140001D03*
X72600000Y-35600000D03*
X72599999Y-38140001D03*
X70060000Y-35600000D03*
X70059999Y-38140001D03*
X67520000Y-35600000D03*
X67519998Y-38140001D03*
X64979998Y-35600001D03*
X64980000Y-38140000D03*
X62440000Y-35599999D03*
X62440001Y-38140001D03*
%TD*%
D14*
%TO.C,C3*%
X39125000Y-58000000D03*
X41200000Y-58000000D03*
%TD*%
D18*
%TO.C,H4*%
X85000000Y-82900000D03*
%TD*%
D12*
%TO.C,TP14*%
X33800000Y-74800000D03*
%TD*%
D37*
%TO.C,D1*%
X32926002Y-49553002D03*
X32926002Y-52053002D03*
%TD*%
D38*
%TO.C,J9-Driver1*%
X41200000Y-22800000D03*
D39*
X38700000Y-22800000D03*
X36200000Y-22800000D03*
X33700000Y-22800000D03*
%TD*%
D30*
%TO.C,U10*%
X76445001Y-53542199D03*
X78055001Y-53542199D03*
X78055001Y-49528999D03*
X76445001Y-49528999D03*
%TD*%
D31*
%TO.C,LD4*%
X52874998Y-38750000D03*
X54750000Y-38750000D03*
%TD*%
D40*
%TO.C,J5-LCDconsole1*%
X32100000Y-81500001D03*
D39*
X34600000Y-81500001D03*
X37100000Y-81500001D03*
X39600000Y-81500001D03*
X42100000Y-81500001D03*
%TD*%
D41*
%TO.C,J13*%
X26225001Y-58428250D03*
X26225001Y-64208250D03*
D42*
X22525000Y-56993251D03*
X22525001Y-65643249D03*
D43*
X26705001Y-56993250D03*
X26705001Y-65643250D03*
%TD*%
D19*
%TO.C,CR2*%
X38249999Y-26472000D03*
X38249999Y-30028000D03*
%TD*%
D44*
%TO.C,J1-JTAG1*%
X24800000Y-35640000D03*
D45*
X27340000Y-35640000D03*
X24800000Y-38180000D03*
X27340000Y-38180000D03*
X24800000Y-40719999D03*
X27340000Y-40720001D03*
X24800000Y-43260000D03*
X27340000Y-43260000D03*
X24800000Y-45800000D03*
X27340000Y-45800000D03*
%TD*%
D14*
%TO.C,C21*%
X66612501Y-65600000D03*
X68687501Y-65600000D03*
%TD*%
D37*
%TO.C,D3*%
X35974002Y-49553002D03*
X35974002Y-52053002D03*
%TD*%
D46*
%TO.C,U2*%
X58417182Y-68198481D03*
X58770735Y-67844928D03*
X59124290Y-67491374D03*
X59477842Y-67137821D03*
X59831395Y-66784268D03*
X60184949Y-66430714D03*
X60538502Y-66077161D03*
X60892057Y-65723607D03*
X61245607Y-65370054D03*
X61599162Y-65016501D03*
X61952715Y-64662948D03*
X62306269Y-64309394D03*
X62659822Y-63955841D03*
X63013374Y-63602286D03*
X63366929Y-63248734D03*
X63720482Y-62895181D03*
D47*
X63720482Y-60172819D03*
X63366929Y-59819266D03*
X63013375Y-59465711D03*
X62659822Y-59112159D03*
X62306269Y-58758606D03*
X61952715Y-58405052D03*
X61599162Y-58051499D03*
X61245608Y-57697944D03*
X60892055Y-57344394D03*
X60538502Y-56990839D03*
X60184949Y-56637286D03*
X59831395Y-56283732D03*
X59477842Y-55930179D03*
X59124287Y-55576627D03*
X58770735Y-55223072D03*
X58417182Y-54869519D03*
D46*
X55694820Y-54869519D03*
X55341267Y-55223072D03*
X54987712Y-55576626D03*
X54634160Y-55930179D03*
X54280607Y-56283732D03*
X53927053Y-56637286D03*
X53573500Y-56990839D03*
X53219945Y-57344393D03*
X52866395Y-57697946D03*
X52512840Y-58051499D03*
X52159287Y-58405052D03*
X51805733Y-58758606D03*
X51452180Y-59112159D03*
X51098628Y-59465714D03*
X50745073Y-59819266D03*
X50391520Y-60172819D03*
D47*
X50391520Y-62895181D03*
X50745073Y-63248734D03*
X51098627Y-63602289D03*
X51452180Y-63955841D03*
X51805733Y-64309394D03*
X52159287Y-64662948D03*
X52512840Y-65016501D03*
X52866394Y-65370056D03*
X53219947Y-65723606D03*
X53573500Y-66077161D03*
X53927053Y-66430714D03*
X54280607Y-66784268D03*
X54634160Y-67137821D03*
X54987715Y-67491373D03*
X55341267Y-67844928D03*
X55694820Y-68198481D03*
%TD*%
D19*
%TO.C,CR5*%
X51749999Y-26472000D03*
X51749999Y-30028000D03*
%TD*%
D13*
%TO.C,U8*%
X39600004Y-35041401D03*
X40250002Y-35041400D03*
X40899999Y-35041400D03*
X40900000Y-32958599D03*
X39600005Y-32958600D03*
%TD*%
D19*
%TO.C,CR1*%
X33750000Y-26472000D03*
X33750000Y-30028000D03*
%TD*%
D15*
%TO.C,R8*%
X49420002Y-71130000D03*
X47420000Y-71130000D03*
%TD*%
D12*
%TO.C,TP7*%
X55250000Y-42000000D03*
%TD*%
D48*
%TO.C,XTAL2*%
X68169652Y-70120999D03*
X68169654Y-67821001D03*
X66369652Y-67821003D03*
X66369650Y-70121001D03*
%TD*%
D14*
%TO.C,C26*%
X30462501Y-65650000D03*
X32537501Y-65650000D03*
%TD*%
D12*
%TO.C,TP11*%
X44900000Y-53700000D03*
%TD*%
D49*
%TO.C,U3*%
X43966002Y-44477001D03*
X41666002Y-44477002D03*
D50*
X41666002Y-50777000D03*
D49*
X39366002Y-44477001D03*
%TD*%
D22*
%TO.C,LD2*%
X22750000Y-27500000D03*
X22750000Y-29375002D03*
%TD*%
D38*
%TO.C,J10-Driver2*%
X55900000Y-22800000D03*
D39*
X53400000Y-22800000D03*
X50900000Y-22800000D03*
X48400000Y-22800000D03*
%TD*%
D27*
%TO.C,J3-IR-RX1*%
X66200000Y-22800000D03*
D28*
X63700000Y-22800000D03*
%TD*%
D51*
%TO.C,LD6*%
X28217499Y-76354998D03*
X26342497Y-76355000D03*
%TD*%
D21*
%TO.C,C10*%
X43666002Y-41514502D03*
X43666002Y-39439502D03*
%TD*%
D51*
%TO.C,LD7*%
X28217500Y-73015001D03*
X26342498Y-73015003D03*
%TD*%
D12*
%TO.C,TP12*%
X41300000Y-53700000D03*
%TD*%
D30*
%TO.C,U9*%
X66195001Y-53579700D03*
X67805001Y-53579700D03*
X67805001Y-49566500D03*
X66195001Y-49566500D03*
%TD*%
D11*
%TO.C,C6*%
X63152001Y-73648500D03*
X63152001Y-75723500D03*
%TD*%
D52*
%TO.C,XTAL1*%
X60449263Y-71060661D03*
X63294063Y-71060661D03*
%TD*%
D15*
%TO.C,R14*%
X32500003Y-68400000D03*
X30500001Y-68400000D03*
%TD*%
D53*
X35750000Y-39000000D03*
X35750000Y-39750000D03*
X40000000Y-66600000D03*
X41249999Y-67902998D03*
X29471601Y-57419880D03*
X58000000Y-52500000D03*
X74750001Y-46900000D03*
X21700000Y-75000000D03*
X65200000Y-46400000D03*
X41800000Y-49100000D03*
X41000000Y-42700000D03*
X71600000Y-74400000D03*
X49650001Y-68800000D03*
X57334351Y-67115650D03*
X78600000Y-51000000D03*
X40400000Y-49100000D03*
X69750001Y-46900000D03*
X48800000Y-59100000D03*
X56212501Y-68900000D03*
X46400000Y-45457004D03*
X24000000Y-33750000D03*
X59556001Y-53784000D03*
X56100000Y-65100000D03*
X50000000Y-50000000D03*
X50412501Y-45700000D03*
X42200000Y-42700000D03*
X51450001Y-71400000D03*
X42500000Y-46300000D03*
X62000545Y-60478544D03*
X80200000Y-59600000D03*
X47687501Y-58100000D03*
X46400000Y-46600000D03*
X74000000Y-66800000D03*
X68600000Y-57600000D03*
X44219444Y-73845001D03*
X49312502Y-43100000D03*
X21700000Y-71500000D03*
X54860294Y-69589707D03*
X60800000Y-59500000D03*
X41000000Y-46300000D03*
X46650001Y-51600000D03*
X56600000Y-61100000D03*
X63718001Y-65014400D03*
X58750001Y-65300000D03*
X54850001Y-74595000D03*
X28650001Y-52400000D03*
X69000000Y-59882900D03*
X74200000Y-58800000D03*
X51250001Y-68800000D03*
X48450001Y-69800000D03*
X68200000Y-55200000D03*
X62478158Y-68202899D03*
X78400000Y-56200000D03*
X65250001Y-74650000D03*
X71600000Y-70200000D03*
X37800000Y-36400000D03*
X43200000Y-54600000D03*
X38250001Y-68800000D03*
X31435401Y-61395564D03*
X34000001Y-65650000D03*
X47700000Y-62400000D03*
X58300000Y-64000000D03*
X38297001Y-67902999D03*
X34250001Y-63800000D03*
X71000000Y-66600000D03*
X49526736Y-51200000D03*
X28393801Y-65000000D03*
X59750001Y-76650000D03*
X29250001Y-71150000D03*
X64750001Y-75900000D03*
X70000001Y-68400000D03*
X68600000Y-63800000D03*
X64781978Y-57881242D03*
X28581331Y-57614070D03*
X54000001Y-75650000D03*
X42400000Y-57200000D03*
X57750001Y-56800000D03*
X58750001Y-59000000D03*
X65000001Y-70150000D03*
X59500001Y-49150000D03*
X74800000Y-56400000D03*
X54650001Y-76400000D03*
X57066240Y-68793124D03*
X44000001Y-46150000D03*
X76800000Y-59600000D03*
X45250001Y-65000000D03*
X59999045Y-62796512D03*
X44400000Y-59700000D03*
X53250001Y-62150000D03*
X31850001Y-46400000D03*
X48756676Y-63981075D03*
X48682647Y-57049733D03*
X26000000Y-30500000D03*
X22750000Y-30500000D03*
X37625001Y-62748000D03*
X54926000Y-46926000D03*
X49582388Y-53354698D03*
X34361910Y-67438090D03*
X30000000Y-75600000D03*
X43650001Y-72200000D03*
X46650001Y-66400000D03*
X43650001Y-73200000D03*
X47875001Y-66575001D03*
X45450001Y-66400000D03*
X43650001Y-71200000D03*
X30000000Y-72800000D03*
X33674247Y-66920970D03*
X74200000Y-60400000D03*
X79000000Y-57000000D03*
X50247001Y-54200000D03*
X55025001Y-48025001D03*
X59000000Y-40750000D03*
X56405150Y-58005150D03*
X54870922Y-58670923D03*
X55774950Y-59000000D03*
X66195002Y-57454999D03*
X66195001Y-51400000D03*
X62562500Y-61362500D03*
X71320001Y-51400000D03*
X55050001Y-65400000D03*
X59000001Y-71900000D03*
X76800000Y-70200000D03*
X66000000Y-59000000D03*
X60226347Y-63626347D03*
X64400000Y-61000000D03*
X59050001Y-58000000D03*
X76445001Y-51400000D03*
X53282453Y-59200000D03*
X54149742Y-59509020D03*
X29039801Y-63052800D03*
X29000000Y-60400000D03*
X48712104Y-36257258D03*
X44637485Y-36251749D03*
X40245124Y-36304749D03*
X55750000Y-38750000D03*
X55800000Y-34750000D03*
M02*
