%TF.GenerationSoftware,KiCad,Pcbnew,9.0.7-9.0.7~ubuntu24.04.1*%
%TF.CreationDate,2026-03-06T12:59:36-05:00*%
%TF.ProjectId,senior_design_pcb,73656e69-6f72-45f6-9465-7369676e5f70,rev?*%
%TF.SameCoordinates,Original*%
%TF.FileFunction,Paste,Bot*%
%TF.FilePolarity,Positive*%
%FSLAX46Y46*%
G04 Gerber Fmt 4.6, Leading zero omitted, Abs format (unit mm)*
G04 Created by KiCad (PCBNEW 9.0.7-9.0.7~ubuntu24.04.1) date 2026-03-06 12:59:36*
%MOMM*%
%LPD*%
G01*
G04 APERTURE LIST*
G04 Aperture macros list*
%AMRoundRect*
0 Rectangle with rounded corners*
0 $1 Rounding radius*
0 $2 $3 $4 $5 $6 $7 $8 $9 X,Y pos of 4 corners*
0 Add a 4 corners polygon primitive as box body*
4,1,4,$2,$3,$4,$5,$6,$7,$8,$9,$2,$3,0*
0 Add four circle primitives for the rounded corners*
1,1,$1+$1,$2,$3*
1,1,$1+$1,$4,$5*
1,1,$1+$1,$6,$7*
1,1,$1+$1,$8,$9*
0 Add four rect primitives between the rounded corners*
20,1,$1+$1,$2,$3,$4,$5,0*
20,1,$1+$1,$4,$5,$6,$7,0*
20,1,$1+$1,$6,$7,$8,$9,0*
20,1,$1+$1,$8,$9,$2,$3,0*%
G04 Aperture macros list end*
%ADD10RoundRect,0.250000X-0.450000X0.350000X-0.450000X-0.350000X0.450000X-0.350000X0.450000X0.350000X0*%
%ADD11RoundRect,0.250000X0.337500X0.475000X-0.337500X0.475000X-0.337500X-0.475000X0.337500X-0.475000X0*%
%ADD12RoundRect,0.250000X-0.475000X0.337500X-0.475000X-0.337500X0.475000X-0.337500X0.475000X0.337500X0*%
%ADD13RoundRect,0.250000X-0.350000X-0.450000X0.350000X-0.450000X0.350000X0.450000X-0.350000X0.450000X0*%
%ADD14RoundRect,0.250000X0.350000X0.450000X-0.350000X0.450000X-0.350000X-0.450000X0.350000X-0.450000X0*%
%ADD15RoundRect,0.250000X0.450000X-0.350000X0.450000X0.350000X-0.450000X0.350000X-0.450000X-0.350000X0*%
%ADD16RoundRect,0.250000X-0.337500X-0.475000X0.337500X-0.475000X0.337500X0.475000X-0.337500X0.475000X0*%
%ADD17R,0.558800X0.977900*%
%ADD18R,0.977900X0.558800*%
%ADD19RoundRect,0.250000X0.475000X-0.337500X0.475000X0.337500X-0.475000X0.337500X-0.475000X-0.337500X0*%
G04 APERTURE END LIST*
D10*
%TO.C,R10*%
X73858000Y-77616000D03*
X73858000Y-79616000D03*
%TD*%
D11*
%TO.C,C12*%
X60843501Y-60784000D03*
X58768501Y-60784000D03*
%TD*%
D12*
%TO.C,C27*%
X69750001Y-53005600D03*
X69750001Y-55080600D03*
%TD*%
D13*
%TO.C,R1*%
X29132000Y-58938000D03*
X31132002Y-58938000D03*
%TD*%
D14*
%TO.C,R20*%
X59000002Y-38750000D03*
X57000000Y-38750000D03*
%TD*%
D10*
%TO.C,R19*%
X74750001Y-48103100D03*
X74750001Y-50103102D03*
%TD*%
D15*
%TO.C,R7*%
X54500001Y-64150000D03*
X54500001Y-62149998D03*
%TD*%
D14*
%TO.C,R21*%
X59000002Y-34750000D03*
X57000000Y-34750000D03*
%TD*%
D11*
%TO.C,C17*%
X47687501Y-59400000D03*
X45612501Y-59400000D03*
%TD*%
D12*
%TO.C,C29*%
X74750000Y-53005600D03*
X74750000Y-55080600D03*
%TD*%
D13*
%TO.C,R11*%
X46750001Y-38000000D03*
X48750003Y-38000000D03*
%TD*%
%TO.C,R13*%
X38199998Y-38000000D03*
X40200000Y-38000000D03*
%TD*%
D16*
%TO.C,C22*%
X55050002Y-72900000D03*
X57125002Y-72900000D03*
%TD*%
D17*
%TO.C,U14*%
X79500000Y-55000000D03*
X78550000Y-55000000D03*
X77599999Y-54999999D03*
X77600000Y-52269498D03*
X78550000Y-52269498D03*
X79500001Y-52269499D03*
%TD*%
D13*
%TO.C,R6*%
X51050000Y-72900002D03*
X53050002Y-72900002D03*
%TD*%
D16*
%TO.C,C14*%
X50412501Y-47200000D03*
X52487501Y-47200000D03*
%TD*%
D18*
%TO.C,U13*%
X72634749Y-68149999D03*
X72634749Y-67200000D03*
X72634748Y-66250000D03*
X75365251Y-66250001D03*
X75365251Y-67200000D03*
X75365252Y-68150000D03*
%TD*%
D12*
%TO.C,C23*%
X70800000Y-57925000D03*
X70800000Y-60000000D03*
%TD*%
D10*
%TO.C,R18*%
X64500001Y-48103100D03*
X64500001Y-50103102D03*
%TD*%
D19*
%TO.C,C11*%
X57056001Y-66071500D03*
X57056001Y-63996500D03*
%TD*%
D12*
%TO.C,C28*%
X64500001Y-53005601D03*
X64500001Y-55080601D03*
%TD*%
D15*
%TO.C,R5*%
X22750000Y-33750002D03*
X22750000Y-31750000D03*
%TD*%
D10*
%TO.C,R16*%
X69750001Y-48103100D03*
X69750001Y-50103102D03*
%TD*%
D19*
%TO.C,C1*%
X29471601Y-56267100D03*
X29471601Y-54192100D03*
%TD*%
D16*
%TO.C,C16*%
X50412501Y-44199999D03*
X52487501Y-44199999D03*
%TD*%
D13*
%TO.C,R15*%
X42500001Y-38000000D03*
X44500003Y-38000000D03*
%TD*%
D10*
%TO.C,R9*%
X72900000Y-59962500D03*
X72900000Y-61962500D03*
%TD*%
%TO.C,R2*%
X29624001Y-64795999D03*
X29624001Y-66796001D03*
%TD*%
D14*
%TO.C,R3*%
X28000000Y-32000000D03*
X25999998Y-32000000D03*
%TD*%
D16*
%TO.C,C15*%
X56212501Y-70400000D03*
X58287501Y-70400000D03*
%TD*%
D12*
%TO.C,C18*%
X64022801Y-66233600D03*
X64022801Y-68308600D03*
%TD*%
D19*
%TO.C,C13*%
X59556001Y-52534000D03*
X59556001Y-50459000D03*
%TD*%
D12*
%TO.C,C25*%
X71589998Y-75619499D03*
X71589998Y-77694499D03*
%TD*%
D16*
%TO.C,C4*%
X38762500Y-62748000D03*
X40837500Y-62748000D03*
%TD*%
M02*
